<?xml version="1.0" standalone="no"?><!DOCTYPE svg PUBLIC "-//W3C//DTD SVG 1.1//EN" "http://www.w3.org/Graphics/SVG/1.1/DTD/svg11.dtd"><svg t="1777961649127" class="icon" viewBox="0 0 1024 1024" version="1.1" xmlns="http://www.w3.org/2000/svg" p-id="5939" xmlns:xlink="http://www.w3.org/1999/xlink" width="200" height="200"><path d="M864 484H540V160c0-4.4-3.6-8-8-8h-40c-4.4 0-8 3.6-8 8v324H160c-4.4 0-8 3.6-8 8v40c0 4.4 3.6 8 8 8h324v324c0 4.4 3.6 8 8 8h40c4.4 0 8-3.6 8-8V540h324c4.4 0 8-3.6 8-8v-40c0-4.4-3.6-8-8-8z" fill="#333333" p-id="5940"></path></svg>