<?xml version="1.0" standalone="no"?><!DOCTYPE svg PUBLIC "-//W3C//DTD SVG 1.1//EN" "http://www.w3.org/Graphics/SVG/1.1/DTD/svg11.dtd"><svg t="1783434374066" class="icon" viewBox="0 0 1180 1024" version="1.1" xmlns="http://www.w3.org/2000/svg" p-id="3621" xmlns:xlink="http://www.w3.org/1999/xlink" width="230.46875" height="200"><path d="M1043.949985 611.7003c-10.223127-81.685761-19.25521-112.355142-25.111175-128.334981-17.270137-46.946981-33.845498-63.026073-39.205196-68.385771-18.064166-17.567898-44.465639-33.051468-49.527575-35.929824l-3.076864-1.786566c-1.290298-0.794029-2.18358-1.290298-2.97761-1.687312-0.595522-5.657459-1.290298-11.414171-2.18358-17.369391-1.786566-11.215663-6.451488-40.991761-22.23282-73.2492-8.436561-17.36939-17.667151-30.470873-22.629834-37.120868l303.319182-217.861782-27.791025-29.974605-4.565668 1.985073h-12.704468L737.752447 154.240186c-3.473878-22.530581-8.932829-43.67161-17.667151-68.286517-7.543278-21.041776-16.873122-41.686537-27.691771-61.140254l-7.245517-12.902976-5.756712 7.245517-52.207425-5.955219h-72.852185l-53.398469 5.955219-5.756712-7.245517-7.245517 12.902976a398.106426 398.106426 0 0 0-27.691771 61.140254c-8.734322 24.515654-14.09402 45.656683-17.667151 68.286517L46.748473 2.679849 45.061161 1.985073H32.356693L27.791025 0 0 29.974605l303.319182 217.961035a236.322962 236.322962 0 0 0-22.729088 37.120869c-15.781332 32.257439-20.446254 62.033537-22.23282 73.2492-0.893283 5.95522-1.588059 11.711932-2.18358 17.36939-0.794029 0.397015-1.588059 0.893283-2.878356 1.687313l-3.176117 1.786565c-5.16119 2.97761-31.661917 18.461181-49.527576 35.929825-5.458951 5.359698-22.034312 21.538044-39.205195 68.385771-5.855966 15.979839-14.888049 46.64922-25.111176 128.334981-4.565668 36.128332-8.436561 67.393234-9.925366 109.873801-0.595522 16.178346-1.588059 46.152951 0.794029 85.358146 2.382088 38.907434 7.642532 78.311137 15.781332 116.920811l1.191044 5.855966 98.360376 28.684307 9.627605 34.838034h65.904429l60.048464-42.381312h6.451488l2.779102-94.588737 0.099254 0.198507c6.153727 10.520888 13.597751 17.36939 20.744015 23.32461 17.468644 14.391781 32.753707 22.034312 48.932054 30.073859 6.947756 3.473878 15.781332 7.642532 24.912668 8.337307v105.705147h216.372977V918.294853c9.131337-0.694776 17.865659-4.863429 24.813415-8.337307 16.178346-8.039546 31.46341-15.682078 48.932053-30.073859 7.146263-5.95522 14.590288-12.803722 20.744015-23.32461l0.099254-0.198507 2.779102 94.588737h6.451488l60.048464 42.381312h65.904429l9.627605-34.838034 98.360376-28.684307 1.191044-5.855966c8.039546-38.609673 13.399244-77.914122 15.781332-116.920811 2.382088-39.105942 1.389551-69.1798 0.794029-85.358146-1.488805-42.480566-5.359698-73.745469-9.925366-109.873801z m-19.652224 2.481342c4.466415 35.632064 8.337307 66.499952 9.726859 108.087235 0.496268 15.781332 1.588059 45.259669-0.79403 83.373073-1.687312 27.096249-4.764176 54.490259-9.329844 81.586508l-8.1388-2.97761-24.118639-47.542503 3.573132-144.31482 7.841039-87.740234v-95.879035l-5.16119-24.714161c0.794029 1.985073 1.488805 3.970146 2.282834 6.054473 3.176117 8.635068 12.902976 35.036542 24.019385 123.96782z m-82.18203 290.316953l-18.163419-19.949986-4.267908-28.585054 52.306679-14.292527 22.729088 44.862654-52.60444 17.964913z m-15.979839-481.181739L972.685858 460.437724l10.520888 49.527576v13.101483l-57.269361-11.215663v-76.425318c0.099254-2.97761 0.198507-7.146263 0.099254-12.009693z m42.778327 117.119317V575.671222l-42.778327-13.399244v-30.173112l42.778327 8.436561z m14.391781 60.544732v2.878356l-0.893283 10.223127-56.475332-13.399244v-17.667151l57.368615 17.964912z m-57.467869 22.332074v-2.282835l36.922361 8.734322v29.081323l-43.373849-6.252981 6.550742-29.379083z m50.520113 57.567122l-0.79403 9.329844h-57.666375v-17.667152l58.460405 8.337308z m-58.460405 29.180576H962.760492v29.974605l-44.862653 2.878356v-32.852961z m55.87981 49.130561l-0.198508 9.726858h-55.582049v-6.25298l55.87981-3.573132zM962.760492 788.768828v34.838034l-44.862653 12.208201v-47.046235H962.760492z m4.466415-358.107202l-29.379083-23.423863c8.932829 5.95522 19.652224 13.796259 27.890278 21.935059l1.488805 1.488804z m-85.358147-136.870795c14.491034 29.57759 18.659688 56.276825 20.446254 67.591741 3.473878 22.034312 3.771639 42.976834 3.970146 58.361152v159.50063H889.312785V446.145197l-7.741786-8.833575c-20.545507-26.897742-44.664147-51.016381-71.462634-71.462635-10.917902-8.337307-27.691771-21.141029-50.619366-33.349229l101.536493-72.95144c4.466415 5.855966 13.101483 18.064166 20.942522 34.242513z m-74.837259 363.268392h45.855191l6.352234 273.840845h-44.068625l-8.039546-273.840845z m49.527576-19.850732h-43.870117l18.758942-38.113405h45.259668L856.559077 637.208491z m-529.022002 19.850732h45.85519l-8.039546 273.840845h-44.068625L327.537075 657.059223z m-3.771639-19.850732l-20.148493-38.113405h45.259668l18.758942 38.113405h-43.870117z m151.461083-306.396046c1.687312-0.496268 3.275371-0.893283 4.86343-1.389551l-1.687313 41.091015 109.774547 70.370844-265.999806-0.794029c17.766405-21.736551 37.815644-41.388776 60.147718-58.460405 17.667151-13.498498 47.343995-36.128332 92.901424-50.917127z m18.461181-226.695357c4.664922-14.09402 10.223127-27.989532 16.2776-41.587283l21.240283 26.599981-20.049239 75.730542-4.565668 13.895512-28.684308-11.017156c3.374624-20.843268 8.1388-39.999225 15.880586-63.621596z m176.671513-41.587283c6.054473 13.597751 11.612678 27.493264 16.2776 41.587283 7.741785 23.721625 12.505961 42.778327 15.880585 63.621596l-28.783561 11.017156-4.367161-13.399244-20.247746-76.326064 21.240283-26.59998z m127.540952 319.199768c22.133566 16.873122 42.182805 36.525347 60.147717 58.460405l-265.999806 0.794029 109.774547-70.370844-1.588059-41.091015c1.588059 0.496268 3.176117 0.893283 4.764176 1.389551 45.557429 14.788795 75.234274 37.418629 92.901425 50.917127zM519.493651 483.66308l-50.123098 28.088786-73.348454-35.53281 5.95522-15.384317h110.965591l6.451488 22.927595z m-53.398468 48.53504l-2.481342 1.290297-41.488029-22.629834 43.969371 21.339537z m-97.764854-71.363381h5.955219l-5.955219 18.064166v-18.064166z m415.972084 15.384317l-73.348454 35.53281-50.123097-28.088786 6.451488-22.927595h110.96559l5.95522 15.384317z m-15.384317 29.478337l-50.917127 27.791024-3.076863-1.588058 53.99399-26.202966z m38.411166-44.961908h4.764176v14.590288l-4.764176-14.590288z m-267.687118 0h40.594747v3.573132l-33.448484 22.232819-7.146263-25.805951z m60.445478 0h41.785791l-7.344771 26.401473-34.44102-22.828341v-3.573132z m232.055055-0.694775h37.220122v119.302898h-34.441019l-2.779103-119.302898zM502.223515 267.984879l78.013376 42.976835v101.139478l-81.487254-52.306678 3.473878-91.908888z m47.443249-171.212561h80.990985l16.2776 61.239507H533.488417l16.2776-61.239507z m-21.935059 81.090239h124.960357l22.828341 68.882039-85.258893 46.946981-85.258893-46.946981 22.828342-68.882039z m153.942425 182.031211l-81.487254 52.306678V311.060967l78.013376-42.976834 3.473878 91.908888zM633.536105 76.921586H546.887661l-5.260444-6.649995 19.453717-2.779103h58.361152l19.354463 2.97761-5.16119 6.451488z m-322.574391 382.920616h37.220122l-2.779103 119.402152h-34.441019V459.842202z m139.451391 154.835708l-84.663372-53.696229 1.290298-52.505186 92.008142 66.400698 93.099932-45.061161v-19.552971l1.290298-0.694776-0.893283-3.076863 27.890278-18.461181v58.261898l-129.92304 68.385771zM430.165358 625.298052l-7.146263 3.771639-15.483571-18.064166 22.629834 14.39178z m170.021518-137.267811l28.287293 18.758942V529.716778l93.099932 45.061161 92.008142-66.400698 1.290297 52.505186-84.663371 53.69623-129.923039-68.385771v-58.261898z m172.80062 122.87603l-15.48357 18.16342-7.146264-3.771639 22.629834-14.391781zM739.141999 322.574392c-8.635068-3.870893-17.865659-7.543278-27.890279-10.818649-3.970146-1.290298-7.741785-2.282834-11.612678-3.374624l-2.18358-57.368615-8.932829-27.493264L1147.471552 23.820878l2.97761 3.176117-411.406417 295.67665z m-56.872347-118.012601l-2.282834-7.04701 153.843171-58.956673-151.560337 66.003683zM554.827954 33.051468h70.668605l39.304449 4.466415-12.009693 15.086556-31.264902-4.863429h-61.338762l-33.051468 4.565668-11.711932-14.788795 39.304449-4.466415zM500.238441 197.514781l-2.282834 7.04701-151.36183-65.904429 153.743918 58.857419zM32.753707 23.820878l458.94892 199.698362-8.238054 24.813415-2.481341 60.048464c-3.970146 1.09179-7.841039 2.18358-11.91044 3.473878-10.02462 3.275371-19.155956 6.947756-27.890278 10.818648L29.875351 26.996995l2.97761-3.176117z m241.285646 395.922846c0.198507-15.285063 0.496268-36.227586 3.970146-58.361152 1.786566-11.414171 5.95522-38.014151 20.446254-67.591741 5.855966-11.910439 13.29999-24.118639 20.942522-34.242513l101.536493 72.95144c-22.927595 12.307454-39.701464 25.111176-50.619366 33.349229a378.890918 378.890918 0 0 0-71.06562 70.966366l-8.1388 9.329844v133.099157h-16.972376v-2.481341-141.833479-15.285064z m-17.667152 464.804885L238.208782 904.498595l-52.60444-17.964913 22.729088-44.862654 52.405932 14.292527-4.267907 28.585054z m-2.18358-449.321314v76.623825l-57.170108 11.215663v-13.101483l10.520888-49.527576 46.64922-37.120868v11.910439z m6.749249 217.464767l-43.473103 6.25298v-29.081322l36.723854-8.734322 6.749249 31.562664z m-63.125328-38.609674l-0.794029-9.329844v-3.771639l57.170108-17.964912v17.667151l-56.276825 13.399244zM211.31104 575.671222v-35.235049l42.778327-8.436561v30.173113l-42.778327 13.399244z m51.016381 260.143841l-44.862654-12.208201v-34.838034h44.862654v47.046235z m-55.681303-66.896967l-0.198507-9.726858 55.87981 3.573131v6.252981h-55.681303z m55.681303-26.103712l-44.862654-2.878356v-29.974605h44.862654v32.852961z m-57.666376-52.703693l-0.794029-9.329844 58.460405-8.337307v17.667151h-57.666376z m9.826112-260.937869c8.337307-8.1388 18.957449-15.979839 27.989532-21.935059l-29.478337 23.423863 1.488805-1.488804z m-68.286517 292.996801c1.389551-41.587283 5.260444-72.355917 9.726858-108.087235 11.11641-88.931278 20.843268-115.233498 24.019386-123.96782 0.694776-1.786566 1.290298-3.573132 1.985073-5.260444l-4.863429 22.927595v97.764855l7.741785 86.152176 3.672385 144.910342-24.118639 47.542502-8.1388 2.97761c-4.466415-27.096249-7.642532-54.490259-9.329844-81.586507a804.748667 804.748667 0 0 1-0.794029-83.373074z m14.987302 191.658815c-0.496268-2.282834-0.794029-4.565668-1.290297-6.848502l11.711931-4.267907 61.338762 20.942522 3.374624 12.108946-75.13502-21.935059z m150.567801 59.353689h-44.465639l-15.086556-54.589513 9.032083-9.925366 16.2776 54.78802 19.056702-5.657459-20.644761-69.477561 4.0694-27.096249 2.282834 0.595522V669.565184l1.985073-0.297761-10.123873-64.01861v-19.552971l33.746244 63.621595-6.947756 301.234855h42.778327l-31.860424 22.530581zM420.835514 864.300863c-6.649995-5.458951-11.910439-10.620142-16.2776-18.064166 0 0-2.382088-4.168654-4.267907-8.833576-3.672385-9.528351-8.535815-38.411166-9.925366-88.335756l3.275371-111.958128h-4.0694l-18.858196-38.411166 47.343996 55.284288 161.981971-85.358147v28.088786l-73.348454 46.152951 11.513425 43.67161 61.835029-40.296985v4.764175l-61.338761 38.609674 9.627605 36.6246 51.711156-36.326839v35.036541l-7.444024 2.084327-2.382088 0.992537c-8.1388 4.863429-16.079093 10.123873-23.721624 15.682078-3.176117 2.382088-6.054473 4.565668-8.734322 6.649995h-0.198508v0.198507c-6.848502 5.458951-12.605215 10.620142-19.25521 16.674615-6.848502 6.153727-9.429098 8.932829-12.108946 12.704468a61.338761 61.338761 0 0 0-10.223127 25.111176c-6.451488 33.349229-8.238054 56.673839-8.337307 57.666376-0.893283 11.612678-2.18358 23.523117-3.672386 35.53281-4.863429 0-11.215663-2.97761-18.064166-6.352234-15.781332-7.841039-29.379083-14.689542-45.061161-27.691771z m201.981196-93.993215v128.136473h-65.308907V770.307648h65.308907z m-121.089464 146.002132l0.595522-4.367161c0.198507-0.198507 0.397015-0.297761 0.694776-0.496268 7.940293-6.352234 12.605215-13.002229 16.178346-23.026849 2.18358-6.153727 3.275371-8.734322 4.168654-11.017156 1.09179-2.580595 1.985073-4.764176 3.970146-10.719396 2.679849-7.741785 3.672385-12.307454 5.359698-19.850731 0.595522-2.878356 1.389551-6.153727 2.282834-10.421635 0.893283-3.870893 1.687312-7.543278 2.481342-11.711931v80.990985l-35.830571 67.889503v-57.567122z m5.756713-52.9022c0.397015-4.168654 2.382088-25.50819 7.940292-54.490259 0.595522-3.374624 1.985073-10.421634 6.947756-17.468644 0.694776-0.992537 1.389551-1.88582 2.580596-3.176117-0.694776 2.679849-1.588059 5.359698-1.985074 7.841039l-2.580595 13.002229c-1.985073 9.925366-3.076863 15.979839-4.764175 23.026849-0.992537 4.267907-1.786566 7.741785-2.382088 10.620142-1.588059 7.04701-2.382088 10.917902-4.664922 17.567897-0.397015 1.191044-0.794029 2.282834-1.09179 3.176117z m45.954444 54.887273h73.2492l45.259668 85.655908H508.277988l45.259668-85.655908z m89.129785-12.406707v-80.990986c0.794029 4.0694 1.588059 7.741785 2.481342 11.612678 0.992537 4.267907 1.687312 7.543278 2.382088 10.421634 1.588059 7.245517 2.679849 12.009693 5.359697 19.751478 2.084327 5.855966 2.97761 8.1388 3.970147 10.719396 0.893283 2.282834 1.985073 4.863429 4.168653 11.017156 3.573132 9.925366 8.337307 16.674615 16.2776 23.026849 0.198507 0.198507 0.397015 0.297761 0.595522 0.397014 0.198507 1.488805 0.297761 2.878356 0.595522 4.367161v57.567123l-35.830571-67.889503z m28.982069-45.656683c-2.282834-6.550741-3.176117-10.421634-4.664922-17.468644-0.694776-2.97761-1.389551-6.352234-2.382088-10.719396-1.687312-7.04701-2.878356-13.200737-4.764176-23.225356l-2.481341-12.704468c-0.496268-2.481341-1.290298-5.16119-1.985073-7.841039 1.191044 1.290298 1.88582 2.18358 2.580595 3.176117 4.962683 7.04701 6.352234 14.09402 6.947756 17.468644 5.657459 29.081322 7.642532 50.520112 7.940293 54.490259-0.297761-0.893283-0.694776-1.985073-1.09179-3.176117z m-99.253659-109.774547c2.382088-1.488805 4.565668-3.176117 6.947756-4.664922l10.818649-2.97761 10.818649 2.97761c2.382088 1.488805 4.664922 3.076863 6.947756 4.664922h-35.53281z m7.841039-127.739459l-49.62683 32.356692-0.794029-2.977609 50.420859-31.661918v2.382088z m19.850732-2.382088l50.420858 31.661917-0.794029 2.97761-49.626829-32.356693v-2.382088z m179.84763 217.167006c-1.786566 4.664922-4.168654 8.734322-4.168654 8.833575-4.367161 7.344771-9.627605 12.605215-16.2776 18.064166-15.682078 13.002229-29.279829 19.751478-45.061161 27.592518-6.848502 3.374624-13.200737 6.252981-18.064166 6.352234-1.488805-11.910439-2.779102-23.820878-3.672385-35.53281 0-0.992537-1.88582-24.217893-8.337308-57.666376a62.827566 62.827566 0 0 0-10.223127-25.111176c-2.679849-3.771639-5.260444-6.451488-12.108946-12.704468-6.649995-6.054473-12.406707-11.215663-19.25521-16.674615v-0.198507h-0.297761c-2.679849-2.18358-5.558205-4.367161-8.734322-6.649995-7.543278-5.558205-15.582824-10.818649-23.721624-15.682079l-9.925366-2.977609v-35.135796l51.711156 36.32684 9.627605-36.624601-61.338761-38.609673v-4.764176l61.835029 40.296986 11.513425-43.67161-73.348454-46.152951V568.723466l161.981971 85.358147 47.343996-55.284288-18.858196 38.411166h-4.0694l3.275371 111.858874c-1.389551 49.92459-6.153727 78.807405-9.925366 88.43501z m88.534264 135.779005l-31.860425-22.53058h42.778327l-6.947756-301.234855 33.746244-63.72085v19.453718l-10.123873 64.01861 2.18358 0.297761v20.545507h-0.198507v73.844722h0.099254v97.864108l2.282834-0.595522 3.970146 27.096249-20.644761 69.477561 19.056703 5.657459 16.2776-54.688766 9.032083 9.925366-15.086556 54.589512H868.469516z m75.432781-37.517883l3.374624-12.108946 61.338761-20.942522 11.711932 4.267907c-0.397015 2.282834-0.794029 4.565668-1.290298 6.848502l-75.135019 21.935059z" p-id="3622"></path></svg>