<?xml version="1.0" standalone="no"?><!DOCTYPE svg PUBLIC "-//W3C//DTD SVG 1.1//EN" "http://www.w3.org/Graphics/SVG/1.1/DTD/svg11.dtd"><svg t="1780735230431" class="icon" viewBox="0 0 1024 1024" version="1.1" xmlns="http://www.w3.org/2000/svg" p-id="3431" xmlns:xlink="http://www.w3.org/1999/xlink" width="200" height="200"><path d="M160 96.064l192 0.192a32 32 0 0 1 0 64l-192-0.192V352a32 32 0 0 1-64 0V96h64z m0 831.872V928H96V672a32 32 0 1 1 64 0v191.936l192-0.192a32 32 0 1 1 0 64zM864 96.064V96h64v256a32 32 0 1 1-64 0V160.064l-192 0.192a32 32 0 1 1 0-64z m0 831.872l-192-0.192a32 32 0 0 1 0-64l192 0.192V672a32 32 0 1 1 64 0v256h-64z" p-id="3432"></path></svg>