<?xml version="1.0" standalone="no"?><!DOCTYPE svg PUBLIC "-//W3C//DTD SVG 1.1//EN" "http://www.w3.org/Graphics/SVG/1.1/DTD/svg11.dtd"><svg t="1777962036767" class="icon" viewBox="0 0 1024 1024" version="1.1" xmlns="http://www.w3.org/2000/svg" p-id="16225" xmlns:xlink="http://www.w3.org/1999/xlink" width="200" height="200"><path d="M163.237647 69.270588c189.741176-9.637647 398.155294-48.790588 574.644706 40.357647-192.150588 17.468235-385.505882 10.842353-578.258824 15.058824-12.649412 277.684706-12.047059 555.369412-0.602353 833.054117 235.52 7.830588 472.244706 8.432941 708.367059-1.807058 6.625882-199.378824 6.023529-399.36 5.421177-598.738824L933.647059 361.411765c-4.818824 220.461176 28.310588 447.548235-39.755294 661.985882l98.785882 0.602353H143.36C41.562353 819.802353 106.014118 581.872941 88.545882 362.616471c15.058824-98.183529-38.550588-240.338824 74.691765-293.345883z" fill="#8C9DAE" p-id="16226"></path><path d="M872.207059 84.329412c30.72-10.24 91.557647-30.72 121.675294-40.357647v33.731764c-176.489412 119.868235-265.035294 339.124706-465.618824 427.068236 101.797647-149.985882 224.075294-284.912941 343.94353-420.442353zM284.310588 433.694118c38.550588 0 115.651765 0.602353 154.804706 0.602353 24.696471 86.136471-181.308235 85.534118-154.804706-0.602353zM272.263529 663.792941c163.237647 22.287059 369.242353-61.44 503.567059 53.007059-166.851765 10.842353-334.305882 6.625882-501.76 4.818824l-1.807059-57.825883z" fill="#8C9DAE" p-id="16227"></path></svg>