<?xml version="1.0" standalone="no"?><!DOCTYPE svg PUBLIC "-//W3C//DTD SVG 1.1//EN" "http://www.w3.org/Graphics/SVG/1.1/DTD/svg11.dtd"><svg t="1778398370648" class="icon" viewBox="0 0 1024 1024" version="1.1" xmlns="http://www.w3.org/2000/svg" p-id="6612" xmlns:xlink="http://www.w3.org/1999/xlink" width="200" height="200"><path d="M487.829333 109.482667c0-13.333333 10.816-24.149333 24.149334-24.149334H512a24.149333 24.149333 0 1 1-24.192 24.149334z m105.045334 7.381333a24.149333 24.149333 0 0 1 29.568-17.088h0.042666a24.149333 24.149333 0 1 1-29.610666 17.088z m-161.749334 0a24.149333 24.149333 0 1 1-29.589333-17.066667l0.042667-0.021333a24.149333 24.149333 0 0 1 29.546666 17.088zM692.394667 151.253333a24.149333 24.149333 0 0 1 33.002666-8.810666h0.021334a24.149333 24.149333 0 1 1-33.024 8.810666z m-360.746667 0a24.149333 24.149333 0 1 1-33.024-8.789333l0.042667-0.021333a24.149333 24.149333 0 0 1 32.981333 8.810666zM779.52 210.282667a24.149333 24.149333 0 0 1 34.154667 0l0.042666 0.042666a24.149333 24.149333 0 1 1-34.197333-0.042666z m-535.04 0a24.149333 24.149333 0 1 1-34.197333 0.042666l0.042666-0.042666a24.149333 24.149333 0 0 1 34.133334 0z m604.053333 79.509333a24.149333 24.149333 0 0 1 33.002667 8.810667l0.021333 0.042666a24.149333 24.149333 0 1 1-33.024-8.853333z m-673.066666 0a24.149333 24.149333 0 1 1-33.024 8.853333v-0.042666a24.149333 24.149333 0 0 1 33.024-8.810667z m719.189333 94.634667a24.149333 24.149333 0 0 1 29.568 17.109333v0.042667a24.149333 24.149333 0 1 1-29.568-17.152z m-765.312 0a24.149333 24.149333 0 1 1-29.568 17.130666v-0.042666a24.149333 24.149333 0 0 1 29.568-17.066667z m785.173333 103.402666c13.333333 0 24.149333 10.816 24.149334 24.149334V512a24.149333 24.149333 0 1 1-24.149334-24.192z m-805.034666 0A24.149333 24.149333 0 1 1 85.333333 512V512c0-13.333333 10.816-24.149333 24.149334-24.149333z m797.653333 105.045334c12.885333 3.413333 20.544 16.682667 17.088 29.568v0.042666a24.149333 24.149333 0 1 1-17.088-29.610666z m-790.272 0a24.149333 24.149333 0 1 1-17.066667 29.589333l-0.021333-0.042667a24.149333 24.149333 0 0 1 17.088-29.546666z m755.882667 99.498666c11.541333 6.677333 15.488 21.44 8.810666 33.002667v0.021333a24.149333 24.149333 0 1 1-8.810666-33.024z m-721.493334 0a24.149333 24.149333 0 1 1-8.789333 33.024l-0.021333-0.042666a24.149333 24.149333 0 0 1 8.810666-32.981334z m59.029334 87.146667a24.149333 24.149333 0 1 1 0.042666 34.197333l-0.042666-0.042666a24.149333 24.149333 0 0 1 0-34.133334z m603.434666 0a24.149333 24.149333 0 0 1 0 34.154667l-0.042666 0.042666a24.149333 24.149333 0 1 1 0.042666-34.197333z m-79.509333 69.013333a24.149333 24.149333 0 0 1-8.810667 33.002667l-0.042666 0.021333a24.149333 24.149333 0 1 1 8.853333-33.024z m-444.416 0a24.149333 24.149333 0 1 1 8.853333 33.024h-0.042666a24.149333 24.149333 0 0 1-8.810667-33.024z m94.634667 46.122667a24.149333 24.149333 0 1 1 17.130666 29.568h-0.042666a24.149333 24.149333 0 0 1-17.066667-29.568z m255.146666 0a24.149333 24.149333 0 0 1-17.109333 29.568h-0.042667a24.149333 24.149333 0 1 1 17.152-29.568z m-151.744 19.84A24.149333 24.149333 0 1 1 512 938.666667H512a24.149333 24.149333 0 0 1-24.149333-24.149334zM382.144 474.837333a32 32 0 0 0 45.226667 1.152L490.666667 415.872V682.666667a32 32 0 0 0 64 0V415.872l63.296 60.117333a32 32 0 1 0 44.074666-46.4l-117.333333-111.466666a32 32 0 0 0-44.074667 0l-117.333333 111.466666a32 32 0 0 0-1.152 45.226667z" fill="#404040" p-id="6613"></path></svg>